<svg width="302" height="64" viewBox="0 0 302 64" fill="none" xmlns="http://www.w3.org/2000/svg">
<g clip-path="url(#clip0_1027_704)">
<path d="M9.59868 32.3808V13.3024C9.59868 11.2576 11.2561 9.5968 13.3038 9.5968H25.0941C27.1387 9.5968 28.7992 11.2544 28.7992 13.3024V24.24L35.8479 20.1696C37.4252 19.2576 38.3979 17.5776 38.3979 15.7536V12.7136C38.3947 5.6928 32.7027 0 25.6829 0H12.715C5.69202 0 0 5.6928 0 12.7136V40.8672L7.04863 36.7968C8.62601 35.8848 9.59868 34.2048 9.59868 32.3808Z" fill="#3F3F3E"/>
<path d="M28.796 31.6192V50.6976C28.796 52.7424 27.1387 54.4032 25.0909 54.4032H13.3006C11.256 54.4032 9.59547 52.7456 9.59547 50.6976V39.76L2.54684 43.8304C0.969462 44.7424 -0.00320435 46.4224 -0.00320435 48.2464V51.2864C-0.00320435 58.3072 5.68881 64 12.7086 64H25.6765C32.6963 64 38.3883 58.3072 38.3883 51.2864V23.1328L31.3397 27.2032C29.7623 28.1152 28.7896 29.7952 28.7896 31.6192H28.796Z" fill="#3F3F3E"/>
<path d="M19.1974 25.2127L24.7678 15.5647C25.3117 14.6207 24.6302 13.4399 23.5424 13.4399H14.8556C13.7645 13.4399 13.083 14.6207 13.6301 15.5647L19.2006 25.2127H19.1974Z" fill="#EA5B13"/>
<path d="M19.8789 15.7568H18.5159C18.1854 15.7568 17.9175 16.0247 17.9175 16.3552V49.9616C17.9175 50.2921 18.1854 50.56 18.5159 50.56H19.8789C20.2093 50.56 20.4772 50.2921 20.4772 49.9616V16.3552C20.4772 16.0247 20.2093 15.7568 19.8789 15.7568Z" fill="#EA5B13"/>
<path d="M47.9934 33.1747V14.7651H54.9204C57.9728 14.7651 60.2317 15.5395 61.6971 17.0851C63.1593 18.6307 63.892 20.9219 63.892 23.9587C63.892 26.9955 63.1593 29.2899 61.6971 30.8451C60.2349 32.4003 57.976 33.1779 54.9204 33.1779H47.9934V33.1747ZM51.7465 30.1667H54.5077C56.3666 30.1667 57.7552 29.6707 58.6735 28.6755C59.5918 27.6803 60.0525 26.1091 60.0525 23.9555C60.0525 21.8019 59.5918 20.2307 58.6735 19.2355C57.752 18.2403 56.3634 17.7443 54.5077 17.7443H51.7465V30.1635V30.1667Z" fill="#3F3F3E"/>
<path d="M65.0758 33.1746V20.6146C65.3318 20.4322 65.7893 20.205 66.442 19.9394C67.0948 19.6738 67.853 19.4338 68.7169 19.2226C69.5808 19.0114 70.4543 18.9058 71.3374 18.9058C71.9997 18.9058 72.5276 18.957 72.9243 19.0562C73.3211 19.1586 73.6378 19.2802 73.8778 19.4274V22.077C73.5099 22.0226 73.0907 21.9746 72.6204 21.9394C72.1501 21.9042 71.6733 21.8882 71.1838 21.8978C70.6975 21.9074 70.2271 21.9298 69.776 21.9682C69.3248 22.0066 68.9249 22.0514 68.5761 22.1058V33.1746H65.0726H65.0758Z" fill="#3F3F3E"/>
<path d="M71.6157 33.1744V29.6128H75.2568V33.1744H71.6157Z" fill="#3F3F3E"/>
<path d="M90.7395 33.4785C87.8151 33.4785 85.5978 32.7009 84.0876 31.1457C82.5774 29.5905 81.8255 27.1937 81.8255 23.9553C81.8255 20.7169 82.5614 18.4321 84.0332 16.8193C85.505 15.2097 87.7415 14.4033 90.7395 14.4033C91.7154 14.4033 92.688 14.5217 93.6639 14.7617C94.6398 15.0017 95.5868 15.3313 96.5051 15.7569V19.0689C95.5836 18.4801 94.6782 18.0577 93.7855 17.7985C92.8928 17.5425 92.0417 17.4113 91.2322 17.4113C90.0164 17.4113 89.0021 17.6289 88.183 18.0609C87.364 18.4929 86.7464 19.1873 86.3337 20.1441C85.921 21.1009 85.713 22.3809 85.713 23.9809C85.713 25.5809 85.921 26.8289 86.3337 27.7761C86.7464 28.7233 87.3736 29.4081 88.2087 29.8337C89.0469 30.2561 90.0996 30.4673 91.3698 30.4673C92.1249 30.4673 92.9376 30.3425 93.8111 30.0961C94.6846 29.8465 95.5804 29.4369 96.5019 28.8673V32.1793C95.9676 32.4385 95.3789 32.6657 94.7357 32.8705C94.0926 33.0721 93.4239 33.2257 92.736 33.3249C92.0449 33.4273 91.3794 33.4785 90.7363 33.4785H90.7395Z" fill="#3F3F3E"/>
<path d="M97.8329 33.1746V20.6146C98.0889 20.4322 98.5464 20.205 99.1991 19.9394C99.8518 19.6738 100.61 19.4338 101.474 19.2226C102.338 19.0114 103.211 18.9058 104.094 18.9058C104.757 18.9058 105.285 18.957 105.681 19.0562C106.078 19.1586 106.395 19.2802 106.635 19.4274V22.077C106.267 22.0226 105.848 21.9746 105.377 21.9394C104.907 21.9042 104.43 21.8882 103.941 21.8978C103.455 21.9074 102.984 21.9298 102.533 21.9682C102.082 22.0066 101.682 22.0514 101.333 22.1058V33.1746H97.8297H97.8329Z" fill="#3F3F3E"/>
<path d="M107.188 17.1936V14.2944H110.858V17.1936H107.188ZM107.272 33.1744V19.4016H110.775L110.804 33.1744H107.272Z" fill="#3F3F3E"/>
<path d="M116.736 33.5907C115.741 33.5907 114.896 33.4851 114.195 33.2739C113.495 33.0627 112.826 32.8099 112.18 32.5155V29.3411C112.602 29.6163 113.05 29.8787 113.517 30.1283C113.987 30.3779 114.493 30.5731 115.034 30.7203C115.578 30.8675 116.17 30.9411 116.813 30.9411C117.529 30.9411 118.07 30.8035 118.428 30.5283C118.787 30.2531 118.966 29.9043 118.966 29.4787C118.966 29.1107 118.828 28.8227 118.553 28.6083C118.278 28.3971 117.92 28.2179 117.478 28.0707C117.037 27.9235 116.566 27.7763 116.07 27.6291C115.61 27.5171 115.146 27.3731 114.675 27.1875C114.205 27.0051 113.78 26.7555 113.392 26.4419C113.005 26.1283 112.698 25.7283 112.468 25.2419C112.237 24.7555 112.122 24.1603 112.122 23.4627C112.122 22.6339 112.289 21.9363 112.618 21.3667C112.951 20.7971 113.386 20.3331 113.93 19.9715C114.471 19.6131 115.063 19.3539 115.696 19.1971C116.33 19.0403 116.953 18.9731 117.558 18.9891C118.624 19.0083 119.481 19.1267 120.124 19.3475C120.767 19.5683 121.375 19.8339 121.945 20.1475V23.0179C121.302 22.6691 120.681 22.3523 120.083 22.0643C119.484 21.7795 118.79 21.6355 118 21.6355C117.283 21.6355 116.726 21.7603 116.33 22.0067C115.933 22.2563 115.738 22.5987 115.738 23.0403C115.738 23.4275 115.856 23.7347 116.096 23.9651C116.336 24.1955 116.653 24.3779 117.049 24.5155C117.446 24.6531 117.872 24.7875 118.332 24.9155C118.793 25.0435 119.267 25.1875 119.753 25.3443C120.239 25.5011 120.7 25.7219 121.132 26.0067C121.564 26.2915 121.913 26.6819 122.182 27.1811C122.45 27.6803 122.581 28.3235 122.581 29.1139C122.562 30.1987 122.274 31.0691 121.711 31.7219C121.151 32.3747 120.428 32.8483 119.545 33.1427C118.662 33.4371 117.725 33.5843 116.729 33.5843L116.736 33.5907Z" fill="#3F3F3E"/>
<path d="M129.016 33.6195C127.579 33.6195 126.485 33.2643 125.733 32.5571C124.978 31.8499 124.6 30.8227 124.6 29.4787V22.0259H122.447V19.2675H124.6V15.4019H128.242V19.2675H131.444V22.0259H128.242V28.9251C128.242 29.4755 128.347 29.8915 128.558 30.1667C128.769 30.4419 129.15 30.5795 129.704 30.5795C129.998 30.5795 130.305 30.5347 130.628 30.4419C130.948 30.3491 131.22 30.2307 131.441 30.0835V33.1203C131.092 33.3027 130.699 33.4339 130.267 33.5075C129.835 33.5811 129.416 33.6163 129.013 33.6163L129.016 33.6195Z" fill="#3F3F3E"/>
<path d="M132.631 17.1936V14.2944H136.301V17.1936H132.631ZM132.715 33.1744V19.4016H136.218L136.247 33.1744H132.715Z" fill="#3F3F3E"/>
<path d="M143.311 33.5908C142.521 33.5908 141.776 33.5172 141.075 33.37C140.374 33.2228 139.75 32.9732 139.197 32.6244C138.646 32.2756 138.208 31.802 137.885 31.2036C137.562 30.6052 137.402 29.866 137.402 28.9828C137.402 28.026 137.594 27.2228 137.981 26.5668C138.368 25.914 138.934 25.418 139.677 25.0756C140.422 24.7364 141.337 24.5636 142.422 24.5636C143.084 24.5636 143.702 24.6244 144.271 24.7428C144.841 24.8612 145.356 25.0276 145.817 25.2388C146.277 25.45 146.655 25.6772 146.949 25.914L147.199 27.8724C146.812 27.6164 146.319 27.4084 145.724 27.2516C145.126 27.0948 144.476 27.018 143.779 27.018C142.803 27.018 142.076 27.1748 141.6 27.4884C141.12 27.802 140.883 28.2884 140.883 28.9508C140.883 29.3924 141.011 29.77 141.27 30.0836C141.526 30.3972 141.859 30.6276 142.265 30.7748C142.668 30.922 143.094 30.9956 143.535 30.9956C144.546 30.9956 145.279 30.9252 145.73 30.7876C146.181 30.65 146.405 30.3524 146.405 29.8916V24.426C146.405 23.5236 146.121 22.8676 145.551 22.4516C144.982 22.0388 144.182 21.8308 143.151 21.8308C142.361 21.8308 141.552 21.9652 140.723 22.2308C139.894 22.4964 139.222 22.842 138.707 23.2644V20.09C139.203 19.7604 139.949 19.4788 140.944 19.2484C141.939 19.018 143.004 18.9028 144.143 18.9028C144.623 18.9028 145.129 18.9444 145.66 19.0276C146.194 19.1108 146.709 19.2516 147.205 19.4564C147.701 19.658 148.152 19.9428 148.559 20.3108C148.962 20.6788 149.285 21.1332 149.525 21.6772C149.765 22.2212 149.883 22.8772 149.883 23.6516L149.855 30.2468C149.855 31.0948 149.583 31.7604 149.042 32.2468C148.498 32.7332 147.736 33.0788 146.751 33.2804C145.766 33.482 144.62 33.5844 143.315 33.5844L143.311 33.5908Z" fill="#3F3F3E"/>
<path d="M151.672 20.4258C152.059 20.2242 152.517 20.029 153.051 19.8466C153.585 19.6642 154.164 19.501 154.788 19.3634C155.412 19.2258 156.049 19.1138 156.692 19.0306C157.335 18.9474 157.943 18.9058 158.513 18.9058C159.783 18.9058 160.845 19.0754 161.699 19.4178C162.554 19.757 163.203 20.2978 163.645 21.0338C164.086 21.7698 164.307 22.7266 164.307 23.9042V33.1778H160.803V24.5122C160.803 24.1634 160.759 23.8274 160.666 23.5042C160.573 23.1842 160.416 22.8962 160.196 22.6498C159.975 22.4002 159.671 22.2082 159.284 22.0706C158.897 21.933 158.401 21.8626 157.793 21.8626C157.332 21.8626 156.868 21.9074 156.401 22.0002C155.931 22.093 155.521 22.2114 155.172 22.3586V33.1778H151.669V20.4258H151.672Z" fill="#3F3F3E"/>
<path d="M179.934 33.4785C177.009 33.4785 174.792 32.7009 173.282 31.1457C171.772 29.5905 171.02 27.1937 171.02 23.9553C171.02 20.7169 171.756 18.4321 173.227 16.8193C174.699 15.2097 176.936 14.4033 179.934 14.4033C180.909 14.4033 181.882 14.5217 182.858 14.7617C183.834 15.0017 184.781 15.3313 185.699 15.7569V19.0689C184.778 18.4801 183.872 18.0577 182.98 17.7985C182.087 17.5425 181.236 17.4113 180.426 17.4113C179.211 17.4113 178.196 17.6289 177.377 18.0609C176.558 18.4929 175.941 19.1873 175.528 20.1441C175.115 21.1009 174.907 22.3809 174.907 23.9809C174.907 25.5809 175.115 26.8289 175.528 27.7761C175.941 28.7233 176.568 29.4081 177.403 29.8337C178.241 30.2561 179.294 30.4673 180.564 30.4673C181.319 30.4673 182.132 30.3425 183.005 30.0961C183.879 29.8465 184.775 29.4369 185.696 28.8673V32.1793C185.162 32.4385 184.573 32.6657 183.93 32.8705C183.287 33.0721 182.618 33.2257 181.93 33.3249C181.239 33.4273 180.574 33.4785 179.93 33.4785H179.934Z" fill="#3F3F3E"/>
<path d="M193.151 33.5905C190.85 33.5905 189.132 32.9569 187.99 31.6865C186.848 30.4161 186.278 28.5857 186.278 26.1953C186.278 23.6193 186.861 21.7505 188.032 20.5921C189.2 19.4337 190.898 18.8545 193.122 18.8545C194.668 18.8545 195.951 19.1265 196.971 19.6673C197.992 20.2113 198.76 21.0241 199.275 22.1089C199.79 23.1937 200.049 24.5569 200.049 26.1953C200.049 28.5857 199.451 30.4193 198.254 31.6865C197.058 32.9569 195.355 33.5905 193.148 33.5905H193.151ZM193.122 30.7201C193.932 30.7201 194.591 30.5377 195.096 30.1697C195.602 29.8017 195.976 29.2769 196.213 28.5953C196.453 27.9137 196.571 27.1137 196.571 26.1953C196.571 25.1457 196.447 24.2913 196.2 23.6289C195.951 22.9665 195.573 22.4801 195.067 22.1665C194.562 21.8529 193.912 21.6961 193.122 21.6961C192.332 21.6961 191.66 21.8625 191.164 22.1921C190.668 22.5217 190.31 23.0209 190.089 23.6833C189.868 24.3457 189.759 25.1841 189.759 26.1953C189.759 27.6481 190.022 28.7681 190.547 29.5489C191.071 30.3297 191.932 30.7233 193.125 30.7233L193.122 30.7201Z" fill="#3F3F3E"/>
<path d="M201.073 33.1746V20.6146C201.329 20.4322 201.787 20.205 202.439 19.9394C203.092 19.6738 203.85 19.4338 204.714 19.2226C205.578 19.0114 206.452 18.9058 207.335 18.9058C207.997 18.9058 208.525 18.957 208.922 19.0562C209.318 19.1586 209.635 19.2802 209.875 19.4274V22.077C209.507 22.0226 209.088 21.9746 208.618 21.9394C208.147 21.9042 207.671 21.8882 207.181 21.8978C206.695 21.9074 206.224 21.9298 205.773 21.9682C205.322 22.0066 204.922 22.0514 204.573 22.1058V33.1746H201.07H201.073Z" fill="#3F3F3E"/>
<path d="M216.223 33.5906C215.266 33.5906 214.354 33.4754 213.491 33.245C212.627 33.0146 211.862 32.6242 211.2 32.0706C210.537 31.5202 210.016 30.7554 209.642 29.7794C209.264 28.8034 209.075 27.5714 209.075 26.0802C209.075 23.853 209.619 22.0962 210.704 20.8098C211.788 19.5202 213.436 18.877 215.644 18.877C215.957 18.877 216.361 18.909 216.857 18.973C217.352 19.037 217.864 19.1618 218.389 19.3442C218.914 19.5298 219.368 19.7954 219.755 20.1442L218.984 21.277V13.4946H222.462V29.8882C222.462 30.5154 222.277 31.0626 221.912 31.5298C221.544 32.0002 221.061 32.381 220.462 32.6754C219.864 32.9698 219.199 33.1938 218.463 33.3506C217.727 33.5074 216.981 33.5842 216.226 33.5842L216.223 33.5906ZM216.361 30.6082C217.096 30.6082 217.717 30.5122 218.223 30.317C218.728 30.125 218.981 29.8626 218.981 29.5298V22.4642C218.575 22.2242 218.143 22.0514 217.685 21.9394C217.224 21.8306 216.783 21.773 216.361 21.773C215.532 21.773 214.838 21.9234 214.278 22.2274C213.718 22.5314 213.302 23.0082 213.036 23.6642C212.767 24.317 212.636 25.149 212.636 26.1634C212.636 27.0274 212.745 27.7922 212.966 28.4546C213.187 29.117 213.567 29.6418 214.111 30.029C214.652 30.4162 215.404 30.6082 216.361 30.6082Z" fill="#3F3F3E"/>
<path d="M230.407 33.5905C229.028 33.5905 227.818 33.3057 226.778 32.7361C225.739 32.1665 224.932 31.3409 224.363 30.2657C223.793 29.1905 223.508 27.8881 223.508 26.3617C223.508 23.9329 224.091 22.0737 225.262 20.7873C226.43 19.4977 228.081 18.8545 230.215 18.8545C231.722 18.8545 232.947 19.1841 233.885 19.8497C234.822 20.5121 235.504 21.4593 235.926 22.6913C236.348 23.9233 236.55 25.3857 236.534 27.0785H225.771L225.521 24.7041H233.744L233.082 25.6993C233.043 24.2465 232.79 23.2001 232.323 22.5665C231.853 21.9329 231.104 21.6129 230.074 21.6129C229.447 21.6129 228.906 21.7569 228.445 22.0417C227.985 22.3265 227.633 22.8001 227.383 23.4625C227.134 24.1249 227.012 25.0369 227.012 26.1953C227.012 27.6321 227.348 28.7265 228.02 29.4785C228.692 30.2337 229.725 30.6113 231.123 30.6113C231.693 30.6113 232.24 30.5569 232.765 30.4449C233.289 30.3361 233.776 30.1921 234.227 30.0161C234.678 29.8401 235.068 29.6801 235.401 29.5329V32.6529C234.739 32.9281 234.003 33.1553 233.194 33.3281C232.384 33.5041 231.456 33.5905 230.407 33.5905Z" fill="#3F3F3E"/>
<path d="M237.583 33.1746V20.6146C237.839 20.4322 238.297 20.205 238.949 19.9394C239.602 19.6738 240.36 19.4338 241.224 19.2226C242.088 19.0114 242.962 18.9058 243.845 18.9058C244.507 18.9058 245.035 18.957 245.432 19.0562C245.829 19.1586 246.145 19.2802 246.385 19.4274V22.077C246.017 22.0226 245.598 21.9746 245.128 21.9394C244.658 21.9042 244.181 21.8882 243.691 21.8978C243.205 21.9074 242.735 21.9298 242.283 21.9682C241.832 22.0066 241.432 22.0514 241.084 22.1058V33.1746H237.58H237.583Z" fill="#3F3F3E"/>
<path d="M252.458 33.5905C250.157 33.5905 248.439 32.9569 247.297 31.6865C246.155 30.4161 245.585 28.5857 245.585 26.1953C245.585 23.6193 246.168 21.7505 247.339 20.5921C248.507 19.4337 250.205 18.8545 252.429 18.8545C253.975 18.8545 255.258 19.1265 256.278 19.6673C257.299 20.2113 258.067 21.0241 258.582 22.1089C259.097 23.1937 259.356 24.5569 259.356 26.1953C259.356 28.5857 258.758 30.4193 257.561 31.6865C256.365 32.9569 254.662 33.5905 252.455 33.5905H252.458ZM252.429 30.7201C253.239 30.7201 253.898 30.5377 254.403 30.1697C254.909 29.8017 255.283 29.2769 255.52 28.5953C255.76 27.9137 255.878 27.1137 255.878 26.1953C255.878 25.1457 255.754 24.2913 255.507 23.6289C255.258 22.9665 254.88 22.4801 254.375 22.1665C253.869 21.8529 253.219 21.6961 252.429 21.6961C251.639 21.6961 250.967 21.8625 250.471 22.1921C249.975 22.5217 249.617 23.0209 249.396 23.6833C249.175 24.3457 249.066 25.1841 249.066 26.1953C249.066 27.6481 249.329 28.7681 249.854 29.5489C250.378 30.3297 251.239 30.7233 252.432 30.7233L252.429 30.7201Z" fill="#3F3F3E"/>
<path d="M274.202 33.4785C271.278 33.4785 269.061 32.7009 267.55 31.1457C266.04 29.5905 265.288 27.1937 265.288 23.9553C265.288 20.7169 266.024 18.4321 267.496 16.8193C268.968 15.2097 271.204 14.4033 274.202 14.4033C275.178 14.4033 276.151 14.5217 277.127 14.7617C278.102 15.0017 279.05 15.3313 279.968 15.7569V19.0689C279.046 18.4801 278.141 18.0577 277.248 17.7985C276.356 17.5425 275.504 17.4113 274.695 17.4113C273.479 17.4113 272.465 17.6289 271.646 18.0609C270.827 18.4929 270.209 19.1873 269.796 20.1441C269.384 21.1009 269.176 22.3809 269.176 23.9809C269.176 25.5809 269.384 26.8289 269.796 27.7761C270.209 28.7233 270.836 29.4081 271.671 29.8337C272.51 30.2561 273.562 30.4673 274.833 30.4673C275.588 30.4673 276.4 30.3425 277.274 30.0961C278.147 29.8465 279.043 29.4369 279.965 28.8673V32.1793C279.43 32.4385 278.842 32.6657 278.198 32.8705C277.555 33.0721 276.887 33.2257 276.199 33.3249C275.508 33.4273 274.842 33.4785 274.199 33.4785H274.202Z" fill="#3F3F3E"/>
<path d="M281.158 33.1744V29.6128H284.799V33.1744H281.158Z" fill="#3F3F3E"/>
<path d="M289.432 11.5776C288.799 11.5776 288.203 11.4592 287.644 11.2192C287.084 10.9792 286.591 10.6496 286.162 10.224C285.733 9.79839 285.397 9.30879 285.161 8.74879C284.921 8.18879 284.802 7.59359 284.802 6.95999C284.802 6.32639 284.921 5.71839 285.161 5.15839C285.401 4.59839 285.733 4.10559 286.162 3.68319C286.591 3.25759 287.084 2.92799 287.644 2.68799C288.203 2.44799 288.799 2.32959 289.432 2.32959C290.066 2.32959 290.674 2.44799 291.233 2.68799C291.793 2.92799 292.286 3.25759 292.708 3.68319C293.134 4.10879 293.464 4.59839 293.704 5.15839C293.944 5.71839 294.062 6.31999 294.062 6.95999C294.062 7.59999 293.944 8.18879 293.704 8.74879C293.464 9.30879 293.131 9.80159 292.708 10.224C292.283 10.6496 291.793 10.9792 291.233 11.2192C290.674 11.4592 290.075 11.5776 289.432 11.5776ZM289.432 11.104C290.002 11.104 290.536 10.9952 291.035 10.7776C291.537 10.56 291.976 10.2624 292.357 9.88479C292.734 9.50719 293.035 9.06559 293.249 8.56319C293.467 8.06079 293.576 7.52639 293.576 6.95999C293.576 6.39359 293.467 5.85279 293.249 5.34719C293.032 4.84159 292.734 4.39999 292.357 4.01919C291.976 3.64159 291.537 3.34079 291.035 3.12639C290.533 2.90879 289.998 2.79999 289.432 2.79999C288.866 2.79999 288.328 2.90879 287.826 3.12639C287.324 3.34399 286.885 3.64159 286.505 4.01919C286.127 4.39999 285.826 4.84159 285.612 5.34719C285.394 5.85279 285.286 6.39039 285.286 6.95999C285.286 7.52959 285.394 8.06399 285.612 8.56319C285.829 9.06559 286.127 9.50399 286.505 9.88479C286.885 10.2656 287.324 10.5632 287.826 10.7776C288.328 10.9952 288.863 11.104 289.432 11.104ZM287.752 9.59999V4.31679H289.688C290.258 4.31679 290.699 4.44479 291.016 4.70399C291.333 4.95999 291.489 5.34399 291.489 5.84959C291.489 6.15679 291.438 6.40639 291.339 6.60159C291.24 6.79679 291.118 6.94719 290.974 7.05599C290.83 7.16479 290.693 7.24159 290.562 7.28639C290.43 7.33119 290.334 7.36319 290.27 7.38239L291.72 9.60319H291.042L289.675 7.46239H288.322V9.60319H287.752V9.59999ZM288.322 6.91839H289.662C290.034 6.91839 290.306 6.86719 290.482 6.76159C290.658 6.65599 290.773 6.52799 290.827 6.36799C290.882 6.20799 290.907 6.04799 290.907 5.88799C290.907 5.72799 290.882 5.56479 290.827 5.40799C290.773 5.25119 290.658 5.11999 290.482 5.01439C290.306 4.90879 290.034 4.85759 289.662 4.85759H288.322V6.91519V6.91839Z" fill="#3F3F3E"/>
<path d="M164.121 51.5551V40.2783H171.237V41.4271H165.337V45.3151H170.527V46.4991H165.337V50.4031H171.237V51.5519H164.121V51.5551Z" fill="#3F3F3E"/>
<path d="M175.496 47.8689L172.725 51.5553H171.356L174.77 46.9569L175.496 47.8689ZM179.166 51.5553H177.611L171.442 43.1201H172.981L179.169 51.5553H179.166ZM174.939 46.8385L177.729 43.1201H179.134L175.617 47.8721L174.942 46.8417L174.939 46.8385Z" fill="#3F3F3E"/>
<path d="M182.023 51.6897C181.425 51.6897 180.926 51.5073 180.519 51.1393C180.113 50.7745 179.911 50.2305 179.911 49.5073V44.2337H178.439V43.1169H179.911V40.7329H181.127V43.1169H183.306V44.2337H181.127V49.1201C181.127 49.5937 181.201 49.9489 181.348 50.1857C181.495 50.4225 181.793 50.5409 182.244 50.5409C182.445 50.5409 182.644 50.5217 182.836 50.4833C183.028 50.4449 183.184 50.3969 183.309 50.3393V51.4881C183.152 51.5457 182.951 51.5937 182.711 51.6321C182.468 51.6705 182.241 51.6897 182.026 51.6897H182.023Z" fill="#3F3F3E"/>
<path d="M187.245 51.8082C186.445 51.8082 185.75 51.6418 185.165 51.309C184.579 50.9762 184.128 50.477 183.811 49.8114C183.495 49.1458 183.338 48.317 183.338 47.325C183.338 45.8722 183.667 44.781 184.327 44.0546C184.986 43.3282 185.891 42.9634 187.04 42.9634C187.942 42.9634 188.665 43.165 189.212 43.5714C189.759 43.9778 190.15 44.525 190.387 45.2098C190.623 45.8978 190.735 46.6754 190.726 47.5426H183.946L184.029 46.4258H189.929L189.456 46.5954C189.42 45.7506 189.209 45.1202 188.822 44.701C188.432 44.285 187.84 44.077 187.04 44.077C186.486 44.077 186.029 44.1794 185.661 44.381C185.293 44.5826 185.021 44.9346 184.842 45.437C184.663 45.9394 184.57 46.6402 184.57 47.5426C184.57 48.5698 184.81 49.3474 185.29 49.885C185.77 50.4194 186.442 50.6882 187.309 50.6882C187.725 50.6882 188.108 50.6562 188.457 50.5954C188.806 50.5346 189.129 50.445 189.42 50.333C189.715 50.221 189.971 50.0962 190.198 49.9618V51.213C189.791 51.405 189.344 51.5522 188.854 51.6514C188.364 51.7538 187.827 51.805 187.238 51.805L187.245 51.8082Z" fill="#3F3F3E"/>
<path d="M191.266 43.7954C191.538 43.661 191.817 43.5394 192.102 43.4306C192.39 43.325 192.681 43.2354 192.981 43.1682C193.279 43.101 193.583 43.0498 193.893 43.0146C194.204 42.9794 194.517 42.9634 194.831 42.9634C195.653 42.9634 196.306 43.085 196.792 43.3282C197.275 43.5714 197.627 43.9234 197.848 44.3842C198.069 44.845 198.178 45.405 198.178 46.0578V51.5522H196.962V46.0578C196.962 45.8562 196.936 45.6418 196.885 45.4146C196.834 45.1874 196.735 44.973 196.591 44.765C196.443 44.557 196.219 44.3874 195.915 44.2594C195.611 44.1314 195.205 44.0642 194.7 44.0642C194.351 44.0642 193.989 44.093 193.618 44.1474C193.247 44.205 192.869 44.2882 192.486 44.4002V51.5522H191.27V43.7922L191.266 43.7954Z" fill="#3F3F3E"/>
<path d="M201.527 51.8081C200.92 51.8081 200.408 51.7473 199.998 51.6225C199.589 51.4977 199.163 51.3249 198.721 51.0977V49.8113C199.07 50.0033 199.381 50.1665 199.649 50.3009C199.918 50.4353 200.196 50.5345 200.478 50.5953C200.76 50.6561 201.08 50.6881 201.441 50.6881C202.004 50.6881 202.465 50.5633 202.82 50.3169C203.175 50.0705 203.351 49.7473 203.351 49.3537C203.351 49.0369 203.265 48.7969 203.089 48.6273C202.913 48.4577 202.692 48.3169 202.42 48.2049C202.148 48.0929 201.867 47.9745 201.575 47.8497C201.249 47.7601 200.92 47.6609 200.587 47.5553C200.254 47.4497 199.95 47.3089 199.675 47.1329C199.4 46.9569 199.176 46.7329 199.006 46.4577C198.837 46.1825 198.753 45.8241 198.753 45.3857C198.753 44.9473 198.84 44.5921 199.016 44.2881C199.189 43.9841 199.419 43.7345 199.701 43.5361C199.982 43.3377 200.299 43.1937 200.648 43.1041C200.996 43.0145 201.345 42.9697 201.694 42.9697C202.199 42.9697 202.634 43.0369 202.996 43.1713C203.358 43.3057 203.729 43.4593 204.113 43.6289V44.8449C203.684 44.6209 203.3 44.4353 202.964 44.2945C202.628 44.1537 202.225 44.0833 201.764 44.0833C201.303 44.0833 200.888 44.1761 200.523 44.3617C200.155 44.5473 199.972 44.8321 199.972 45.2161C199.972 45.5329 200.065 45.7825 200.251 45.9681C200.436 46.1537 200.683 46.3009 200.987 46.4065C201.291 46.5121 201.617 46.6177 201.966 46.7201C202.247 46.8097 202.542 46.9089 202.846 47.0145C203.15 47.1233 203.431 47.2641 203.69 47.4369C203.95 47.6097 204.161 47.8401 204.324 48.1217C204.487 48.4033 204.57 48.7649 204.57 49.2033C204.57 49.8017 204.417 50.2945 204.113 50.6817C203.809 51.0689 203.422 51.3537 202.954 51.5361C202.487 51.7153 202.011 51.8081 201.527 51.8081Z" fill="#3F3F3E"/>
<path d="M208.576 51.8081C207.258 51.8081 206.279 51.4177 205.642 50.6337C205.005 49.8497 204.689 48.7617 204.689 47.3633C204.689 45.9649 205.025 44.8001 205.693 44.0673C206.362 43.3345 207.312 42.9697 208.541 42.9697C209.453 42.9697 210.198 43.1521 210.771 43.5201C211.347 43.8849 211.769 44.4001 212.038 45.0593C212.31 45.7185 212.444 46.4865 212.444 47.3665C212.444 48.7521 212.108 49.8401 211.44 50.6305C210.768 51.4209 209.814 51.8145 208.576 51.8145V51.8081ZM208.56 50.6945C209.248 50.6945 209.782 50.5441 210.166 50.2465C210.55 49.9489 210.822 49.5489 210.985 49.0465C211.149 48.5441 211.232 47.9841 211.232 47.3633C211.232 46.6977 211.149 46.1217 210.979 45.6289C210.809 45.1393 210.531 44.7585 210.144 44.4865C209.753 44.2145 209.229 44.0801 208.563 44.0801C207.898 44.0801 207.357 44.2273 206.973 44.5185C206.589 44.8129 206.317 45.2033 206.154 45.6929C205.991 46.1825 205.908 46.7393 205.908 47.3569C205.908 48.3489 206.106 49.1521 206.5 49.7665C206.893 50.3809 207.581 50.6881 208.563 50.6881L208.56 50.6945Z" fill="#3F3F3E"/>
<path d="M212.988 51.5551V43.7951C213.123 43.7375 213.385 43.6415 213.775 43.5071C214.163 43.3727 214.633 43.2479 215.18 43.1359C215.727 43.0239 216.293 42.9663 216.879 42.9663C216.969 42.9663 217.058 42.9791 217.151 43.0015C217.24 43.0239 217.33 43.0463 217.423 43.0687V44.1503C217.129 44.1151 216.844 44.0991 216.569 44.0991C216.293 44.0991 216.025 44.1119 215.765 44.1407C215.506 44.1695 215.247 44.2047 214.988 44.2495C214.729 44.2943 214.47 44.3391 214.211 44.3839V51.5519H212.995L212.988 51.5551Z" fill="#3F3F3E"/>
<path d="M224.059 51.7247C223.496 51.7247 223.016 51.6863 222.622 51.6063C222.229 51.5263 221.873 51.4143 221.557 51.2671C221.24 51.1199 220.898 50.9503 220.526 50.7615V49.4431C220.888 49.7471 221.371 50.0191 221.979 50.2559C222.587 50.4927 223.297 50.6111 224.11 50.6111C224.967 50.6111 225.588 50.4287 225.978 50.0607C226.366 49.6959 226.561 49.2287 226.561 48.6655C226.561 48.1919 226.43 47.8111 226.174 47.5231C225.914 47.2351 225.582 46.9983 225.175 46.8127C224.769 46.6271 224.34 46.4479 223.889 46.2815C223.505 46.1471 223.124 46.0031 222.747 45.8495C222.369 45.6959 222.027 45.5071 221.723 45.2735C221.419 45.0431 221.176 44.7423 220.997 44.3775C220.818 44.0127 220.725 43.5519 220.725 42.9983C220.725 42.6943 220.782 42.3743 220.901 42.0351C221.019 41.6959 221.211 41.3823 221.477 41.0879C221.742 40.7967 222.097 40.5567 222.542 40.3775C222.987 40.1983 223.531 40.1055 224.174 40.1055C224.612 40.1055 224.987 40.1375 225.297 40.1983C225.607 40.2591 225.902 40.3519 226.183 40.4703C226.465 40.5887 226.782 40.7327 227.13 40.9023V42.1535C226.836 41.9839 226.558 41.8303 226.295 41.6895C226.03 41.5487 225.739 41.4367 225.415 41.3503C225.095 41.2671 224.702 41.2223 224.241 41.2223C223.688 41.2223 223.246 41.3023 222.913 41.4591C222.581 41.6159 222.337 41.8271 222.187 42.0863C222.033 42.3455 221.96 42.6207 221.96 42.9151C221.96 43.3791 222.065 43.7439 222.273 44.0127C222.481 44.2847 222.776 44.5055 223.153 44.6815C223.531 44.8575 223.966 45.0271 224.462 45.1967C224.855 45.3311 225.249 45.4815 225.646 45.6447C226.042 45.8079 226.398 46.0095 226.721 46.2527C227.041 46.4959 227.3 46.7999 227.498 47.1647C227.697 47.5295 227.796 47.9839 227.796 48.5247C227.796 49.0335 227.684 49.5295 227.457 50.0223C227.23 50.5151 226.849 50.9183 226.308 51.2383C225.767 51.5583 225.019 51.7215 224.059 51.7215V51.7247Z" fill="#3F3F3E"/>
<path d="M231.901 51.8082C231.101 51.8082 230.407 51.6418 229.821 51.309C229.236 50.9762 228.784 50.477 228.468 49.8114C228.151 49.1458 227.994 48.317 227.994 47.325C227.994 45.8722 228.324 44.781 228.983 44.0546C229.642 43.3282 230.547 42.9634 231.696 42.9634C232.598 42.9634 233.321 43.165 233.869 43.5714C234.416 43.9778 234.806 44.525 235.043 45.2098C235.28 45.8978 235.392 46.6754 235.382 47.5426H228.602L228.685 46.4258H234.585L234.112 46.5954C234.077 45.7506 233.865 45.1202 233.478 44.701C233.088 44.285 232.496 44.077 231.696 44.077C231.143 44.077 230.685 44.1794 230.317 44.381C229.949 44.5826 229.677 44.9346 229.498 45.437C229.319 45.9394 229.226 46.6402 229.226 47.5426C229.226 48.5698 229.466 49.3474 229.946 49.885C230.426 50.4194 231.098 50.6882 231.965 50.6882C232.381 50.6882 232.765 50.6562 233.113 50.5954C233.462 50.5346 233.785 50.445 234.077 50.333C234.371 50.221 234.627 50.0962 234.854 49.9618V51.213C234.448 51.405 234 51.5522 233.51 51.6514C233.021 51.7538 232.483 51.805 231.894 51.805L231.901 51.8082Z" fill="#3F3F3E"/>
<path d="M239.237 51.7921C238.988 51.7921 238.71 51.7569 238.399 51.6897C238.089 51.6225 237.788 51.5361 237.494 51.4369C237.199 51.3345 236.94 51.2289 236.716 51.1169L237.139 50.6945V55.2257H235.923V44.6433C235.923 44.2945 236.032 44.0129 236.252 43.7985C236.473 43.5841 236.758 43.4177 237.107 43.2993C237.455 43.1809 237.826 43.0977 238.223 43.0465C238.617 42.9953 238.988 42.9697 239.34 42.9697C240.015 42.9697 240.652 43.1105 241.25 43.3921C241.848 43.6737 242.331 44.1505 242.703 44.8193C243.074 45.4913 243.259 46.4001 243.259 47.5489C243.259 48.4161 243.103 49.1681 242.795 49.8049C242.485 50.4417 242.031 50.9313 241.436 51.2769C240.837 51.6193 240.105 51.7921 239.237 51.7921ZM239.237 50.6753C239.858 50.6753 240.367 50.5441 240.767 50.2785C241.167 50.0129 241.468 49.6449 241.672 49.1713C241.874 48.6977 241.976 48.1569 241.976 47.5489C241.976 46.9409 241.909 46.3713 241.775 45.8401C241.64 45.3089 241.381 44.8833 240.997 44.5633C240.613 44.2433 240.057 44.0801 239.324 44.0801C238.738 44.0801 238.226 44.1473 237.794 44.2817C237.359 44.4161 237.145 44.6081 237.145 44.8577V50.0801C237.494 50.2817 237.842 50.4321 238.194 50.5281C238.543 50.6241 238.892 50.6721 239.244 50.6721L239.237 50.6753Z" fill="#3F3F3E"/>
<path d="M246.456 51.6897C245.857 51.6897 245.358 51.5073 244.952 51.1393C244.546 50.7745 244.344 50.2305 244.344 49.5073V44.2337H242.872V43.1169H244.344V40.7329H245.56V43.1169H247.739V44.2337H245.56V49.1201C245.56 49.5937 245.633 49.9489 245.781 50.1857C245.928 50.4225 246.225 50.5409 246.676 50.5409C246.878 50.5409 247.076 50.5217 247.268 50.4833C247.46 50.4449 247.617 50.3969 247.742 50.3393V51.4881C247.585 51.5457 247.384 51.5937 247.144 51.6321C246.9 51.6705 246.673 51.6897 246.459 51.6897H246.456Z" fill="#3F3F3E"/>
<path d="M251.105 51.8081C250.733 51.8081 250.359 51.7697 249.982 51.6897C249.604 51.6097 249.255 51.4753 248.932 51.2833C248.609 51.0913 248.353 50.8289 248.155 50.4961C247.956 50.1633 247.86 49.7441 247.86 49.2385C247.86 48.5409 247.991 47.9777 248.257 47.5553C248.523 47.1329 248.887 46.8289 249.354 46.6433C249.822 46.4577 250.359 46.3649 250.97 46.3649C251.431 46.3649 251.834 46.3937 252.17 46.4481C252.509 46.5057 252.81 46.5857 253.076 46.6945C253.341 46.8001 253.581 46.9217 253.795 47.0593L254.032 48.1761C253.773 47.9841 253.399 47.8177 252.909 47.6769C252.42 47.5361 251.882 47.4657 251.293 47.4657C250.583 47.4657 250.036 47.6001 249.655 47.8721C249.271 48.1441 249.079 48.5377 249.079 49.0561C249.079 49.4721 249.194 49.8049 249.425 50.0545C249.655 50.3041 249.95 50.4769 250.305 50.5793C250.66 50.6817 251.021 50.7329 251.396 50.7329C252.128 50.7329 252.682 50.6785 253.06 50.5729C253.437 50.4673 253.626 50.2209 253.626 49.8369V45.9649C253.626 45.3121 253.434 44.8321 253.05 44.5281C252.666 44.2241 252.122 44.0705 251.412 44.0705C250.961 44.0705 250.484 44.1345 249.985 44.2657C249.482 44.3969 249.054 44.6017 248.692 44.8833V43.6673C249.041 43.4433 249.508 43.2705 250.097 43.1521C250.682 43.0337 251.252 42.9761 251.805 42.9761C252.176 42.9761 252.522 43.0145 252.836 43.0849C253.152 43.1585 253.434 43.2641 253.68 43.4049C253.927 43.5457 254.138 43.7249 254.314 43.9457C254.49 44.1665 254.624 44.4193 254.72 44.7073C254.816 44.9953 254.864 45.3185 254.864 45.6801V49.7697C254.864 50.3681 254.688 50.8129 254.333 51.1041C253.978 51.3953 253.517 51.5873 252.948 51.6801C252.378 51.7697 251.767 51.8145 251.114 51.8145L251.105 51.8081Z" fill="#3F3F3E"/>
<path d="M257.037 51.5552H255.821V39.9072H257.037V51.5552Z" fill="#3F3F3E"/>
<path d="M264.78 51.6898C264.024 51.6898 263.385 51.6194 262.86 51.4786C262.335 51.3378 261.9 51.1778 261.551 50.9954V49.7282C261.708 49.8178 261.926 49.9266 262.201 50.0482C262.476 50.173 262.825 50.2786 263.241 50.3682C263.656 50.4578 264.143 50.5026 264.693 50.5026C265.243 50.5026 265.72 50.4258 266.053 50.2754C266.386 50.1218 266.632 49.9266 266.789 49.6834C266.946 49.4402 267.048 49.181 267.093 48.9058C267.138 48.6306 267.16 48.3618 267.16 48.1026C267.16 47.3922 267.038 46.8706 266.795 46.5378C266.552 46.205 266.242 45.9874 265.864 45.8882C265.487 45.7858 265.096 45.7346 264.69 45.7346C264.092 45.7346 263.596 45.7762 263.202 45.8626C262.809 45.9458 262.418 46.0802 262.034 46.2594L261.273 45.4818L261.849 40.2754H267.646V41.4754H262.898L262.578 45.1106L261.378 45.3154C261.807 45.0562 262.325 44.8578 262.933 44.7234C263.541 44.589 264.156 44.5218 264.776 44.5218C265.183 44.5218 265.595 44.573 266.018 44.6754C266.44 44.7778 266.83 44.9538 267.186 45.2066C267.541 45.4594 267.826 45.821 268.04 46.2882C268.254 46.7554 268.36 47.3634 268.36 48.1058C268.36 48.8482 268.254 49.4562 268.04 49.9234C267.826 50.3906 267.541 50.7522 267.186 51.005C266.83 51.2578 266.443 51.437 266.018 51.5362C265.595 51.6386 265.183 51.6898 264.776 51.6898H264.78Z" fill="#3F3F3E"/>
<path d="M271.268 51.6896C270.951 51.6896 270.657 51.6704 270.382 51.632C270.107 51.5936 269.854 51.5392 269.63 51.472V50.3392C269.844 50.384 270.078 50.4288 270.331 50.4736C270.584 50.5184 270.852 50.5408 271.134 50.5408C271.326 50.5408 271.588 50.5056 271.921 50.4384C272.254 50.3712 272.606 50.2464 272.977 50.0672C273.348 49.888 273.703 49.6224 274.042 49.2736C274.381 48.9248 274.657 48.4672 274.871 47.904C275.085 47.3408 275.191 46.6464 275.191 45.824C275.191 44.8544 275.127 44.0672 274.996 43.4656C274.865 42.864 274.679 42.4032 274.439 42.0896C274.196 41.7728 273.917 41.5584 273.601 41.4464C273.284 41.3344 272.942 41.2768 272.57 41.2768C271.963 41.2768 271.479 41.3824 271.124 41.5968C270.769 41.8112 270.51 42.0704 270.347 42.3744C270.184 42.6784 270.075 42.976 270.027 43.2704C269.976 43.5648 269.95 43.7888 269.95 43.9456C269.95 44.7104 270.174 45.3024 270.625 45.7216C271.076 46.1376 271.723 46.3456 272.57 46.3456C273.076 46.3456 273.524 46.2688 273.914 46.1184C274.305 45.9648 274.628 45.7984 274.887 45.6128C275.146 45.4272 275.322 45.2896 275.412 45.1968L275.396 46.5504C275.293 46.6176 275.149 46.7072 274.964 46.8128C274.778 46.9184 274.561 47.024 274.314 47.1264C274.065 47.2288 273.796 47.312 273.502 47.3792C273.207 47.4464 272.9 47.4816 272.574 47.4816C271.39 47.4816 270.456 47.1616 269.768 46.5248C269.08 45.888 268.737 45.024 268.737 43.9296C268.737 43.4912 268.805 43.0464 268.939 42.6016C269.073 42.1568 269.294 41.744 269.598 41.3664C269.902 40.9888 270.296 40.688 270.782 40.4608C271.265 40.2368 271.863 40.1216 272.574 40.1216C273.847 40.1216 274.804 40.5632 275.447 41.4496C276.09 42.336 276.41 43.6576 276.41 45.4144C276.41 46.5408 276.282 47.4848 276.029 48.2464C275.776 49.008 275.447 49.616 275.041 50.0736C274.634 50.5312 274.202 50.8736 273.738 51.104C273.274 51.3344 272.826 51.4912 272.385 51.568C271.947 51.648 271.572 51.6864 271.268 51.6864V51.6896Z" fill="#3F3F3E"/>
<path d="M280.192 51.6896C279.571 51.6896 279.011 51.6192 278.509 51.4784C278.007 51.3376 277.565 51.1712 277.181 50.9792V49.728C277.53 49.92 277.946 50.0928 278.422 50.2432C278.899 50.3936 279.44 50.4704 280.038 50.4704C281.04 50.4704 281.808 50.2848 282.339 49.9136C282.867 49.5424 283.132 49.008 283.132 48.3072C283.132 47.6064 282.86 47.072 282.32 46.7008C281.779 46.3296 280.995 46.144 279.971 46.144H278.736V44.976H280.019C280.841 44.976 281.472 44.8224 281.904 44.512C282.339 44.2016 282.553 43.7536 282.553 43.168C282.553 42.7744 282.451 42.4416 282.249 42.1696C282.044 41.8976 281.744 41.6928 281.344 41.552C280.944 41.4112 280.457 41.3408 279.881 41.3408C279.376 41.3408 278.918 41.3984 278.512 41.5168C278.106 41.6352 277.751 41.7728 277.447 41.9328V40.6976C277.786 40.5408 278.166 40.4032 278.595 40.2912C279.024 40.1792 279.498 40.1216 280.016 40.1216C280.713 40.1216 281.302 40.208 281.782 40.384C282.262 40.56 282.646 40.7936 282.94 41.0848C283.235 41.3792 283.446 41.7056 283.574 42.064C283.702 42.4256 283.769 42.7904 283.769 43.1616C283.769 43.5776 283.695 43.9328 283.548 44.2272C283.401 44.5216 283.231 44.7584 283.043 44.9376C282.851 45.1168 282.607 45.2864 282.316 45.4464C282.723 45.6608 283.059 45.8816 283.331 46.1152C283.603 46.3456 283.836 46.6464 284.041 47.0112C284.242 47.3792 284.345 47.8208 284.345 48.3392C284.345 48.7456 284.271 49.1456 284.124 49.5392C283.977 49.9328 283.74 50.2944 283.414 50.6208C283.087 50.9472 282.659 51.2064 282.131 51.3984C281.6 51.5904 280.953 51.6864 280.185 51.6864L280.192 51.6896Z" fill="#3F3F3E"/>
<path d="M159.735 38.9346H157.815V52.765H159.735V38.9346Z" fill="#EA5B13"/>
<path d="M290.933 18.2654C290.987 24.5758 294.923 31.683 299.114 36.2814C299.69 36.9342 300.359 37.5294 300.938 38.1823C302.358 39.8078 302.432 42.1214 300.688 43.5486C299.549 44.4767 298.154 44.7967 296.753 44.8607C296.308 44.8735 295.921 44.8766 295.495 44.9374C294.283 45.0782 293.204 45.651 292.849 46.8286C292.488 48.0159 292.657 49.2863 292.884 50.5119C292.971 50.9663 292.292 51.1295 292.177 50.6559C291.313 46.6783 292.219 44.0286 296.708 43.9678C297.885 43.8974 299.175 43.5775 300.051 42.8063C301.526 41.5263 301.046 39.6702 299.674 38.4927C294.599 33.8591 290.626 27.8015 289.016 21.0559C288.811 20.1407 288.674 19.219 288.639 18.2654C288.619 17.6318 289.115 17.1038 289.746 17.0846C290.405 17.0622 290.952 17.6094 290.926 18.2654H290.933Z" fill="#3F3F3E"/>
</g>
<defs>
<clipPath id="clip0_1027_704">
<rect width="302" height="64" fill="white"/>
</clipPath>
</defs>
</svg>
